<svg width="31" height="32" viewBox="0 0 31 32" fill="none" xmlns="http://www.w3.org/2000/svg">
<path d="M5.81259 22.8071C5.62917 22.8071 5.4759 22.7447 5.35276 22.6198C5.22962 22.4949 5.16762 22.3412 5.16676 22.1587C5.1659 21.9761 5.2279 21.8228 5.35276 21.6988C5.47762 21.5748 5.6309 21.5133 5.81259 21.5141H25.1876C25.371 21.5141 25.5243 21.5761 25.6474 21.7001C25.7714 21.8241 25.8334 21.9778 25.8334 22.1613C25.8334 22.3447 25.7714 22.498 25.6474 22.6211C25.5234 22.7442 25.3701 22.8058 25.1876 22.8058L5.81259 22.8071ZM5.81259 16.6458C5.62917 16.6458 5.4759 16.5838 5.35276 16.4598C5.22962 16.3358 5.16762 16.1821 5.16676 15.9987C5.1659 15.8153 5.2279 15.662 5.35276 15.5389C5.47762 15.4157 5.6309 15.3542 5.81259 15.3542H25.1876C25.371 15.3542 25.5243 15.4162 25.6474 15.5402C25.7706 15.6642 25.8326 15.8179 25.8334 16.0013C25.8343 16.1847 25.7723 16.338 25.6474 16.4611C25.5226 16.5843 25.3693 16.6458 25.1876 16.6458H5.81259ZM5.81259 10.4846C5.62917 10.4846 5.4759 10.423 5.35276 10.2999C5.22876 10.1759 5.16676 10.0222 5.16676 9.83876C5.16676 9.65534 5.22876 9.50206 5.35276 9.37892C5.47676 9.25578 5.63003 9.19421 5.81259 9.19421H25.1876C25.371 9.19421 25.5243 9.25621 25.6474 9.38021C25.7706 9.50421 25.8326 9.65706 25.8334 9.83876C25.8343 10.0205 25.7723 10.1737 25.6474 10.2986C25.5226 10.4235 25.3693 10.4855 25.1876 10.4846H5.81259Z" fill="white" fill-opacity="0.65"/>
</svg>
